<mxfile host="app.diagrams.net" modified="2020-08-30T16:36:54.739Z" agent="5.0 (X11; Linux x86_64) AppleWebKit/537.36 (KHTML, like Gecko) Chrome/84.0.4147.135 Safari/537.36" etag="arOIGhtjH-NYgZ2mxkEh" version="13.6.5" type="github">
  <diagram id="zO_4V--RiIPV9rypi18u" name="Page-1">
    <mxGraphModel dx="979" dy="524" grid="1" gridSize="10" guides="1" tooltips="1" connect="1" arrows="1" fold="1" page="1" pageScale="1" pageWidth="827" pageHeight="1169" math="0" shadow="0">
      <root>
        <mxCell id="0" />
        <mxCell id="1" parent="0" />
        <mxCell id="ypStdLImDc7VV0W3vYd6-8" value="1" style="rounded=0;orthogonalLoop=1;jettySize=auto;html=1;exitX=1;exitY=0.5;exitDx=0;exitDy=0;entryX=0;entryY=0.5;entryDx=0;entryDy=0;" edge="1" parent="1" source="ypStdLImDc7VV0W3vYd6-1" target="ypStdLImDc7VV0W3vYd6-3">
          <mxGeometry relative="1" as="geometry" />
        </mxCell>
        <mxCell id="ypStdLImDc7VV0W3vYd6-22" style="rounded=0;orthogonalLoop=1;jettySize=auto;html=1;exitX=0.75;exitY=1;exitDx=0;exitDy=0;" edge="1" parent="1" source="ypStdLImDc7VV0W3vYd6-1" target="ypStdLImDc7VV0W3vYd6-16">
          <mxGeometry relative="1" as="geometry" />
        </mxCell>
        <mxCell id="ypStdLImDc7VV0W3vYd6-23" style="rounded=0;orthogonalLoop=1;jettySize=auto;html=1;exitX=0.5;exitY=1;exitDx=0;exitDy=0;entryX=0.5;entryY=0;entryDx=0;entryDy=0;" edge="1" parent="1" source="ypStdLImDc7VV0W3vYd6-1" target="ypStdLImDc7VV0W3vYd6-6">
          <mxGeometry relative="1" as="geometry" />
        </mxCell>
        <mxCell id="ypStdLImDc7VV0W3vYd6-24" style="rounded=0;orthogonalLoop=1;jettySize=auto;html=1;exitX=0.5;exitY=0;exitDx=0;exitDy=0;entryX=0.5;entryY=1;entryDx=0;entryDy=0;" edge="1" parent="1" source="ypStdLImDc7VV0W3vYd6-1" target="ypStdLImDc7VV0W3vYd6-17">
          <mxGeometry relative="1" as="geometry" />
        </mxCell>
        <mxCell id="ypStdLImDc7VV0W3vYd6-25" style="rounded=0;orthogonalLoop=1;jettySize=auto;html=1;exitX=0.75;exitY=0;exitDx=0;exitDy=0;entryX=0;entryY=1;entryDx=0;entryDy=0;" edge="1" parent="1" source="ypStdLImDc7VV0W3vYd6-1" target="ypStdLImDc7VV0W3vYd6-4">
          <mxGeometry relative="1" as="geometry" />
        </mxCell>
        <mxCell id="ypStdLImDc7VV0W3vYd6-26" style="rounded=0;orthogonalLoop=1;jettySize=auto;html=1;exitX=0.25;exitY=0;exitDx=0;exitDy=0;entryX=0.5;entryY=1;entryDx=0;entryDy=0;" edge="1" parent="1" source="ypStdLImDc7VV0W3vYd6-1" target="ypStdLImDc7VV0W3vYd6-5">
          <mxGeometry relative="1" as="geometry" />
        </mxCell>
        <mxCell id="ypStdLImDc7VV0W3vYd6-47" style="edgeStyle=none;rounded=0;orthogonalLoop=1;jettySize=auto;html=1;exitX=1;exitY=1;exitDx=0;exitDy=0;entryX=0;entryY=0.5;entryDx=0;entryDy=0;" edge="1" parent="1" source="ypStdLImDc7VV0W3vYd6-1" target="ypStdLImDc7VV0W3vYd6-46">
          <mxGeometry relative="1" as="geometry" />
        </mxCell>
        <mxCell id="ypStdLImDc7VV0W3vYd6-1" value="Admin Analytic&lt;br&gt;Dashboard" style="whiteSpace=wrap;html=1;align=center;" vertex="1" parent="1">
          <mxGeometry x="100" y="170" width="100" height="40" as="geometry" />
        </mxCell>
        <mxCell id="ypStdLImDc7VV0W3vYd6-13" value="N" style="rounded=0;orthogonalLoop=1;jettySize=auto;html=1;exitX=1;exitY=0.5;exitDx=0;exitDy=0;" edge="1" parent="1" source="ypStdLImDc7VV0W3vYd6-3" target="ypStdLImDc7VV0W3vYd6-9">
          <mxGeometry relative="1" as="geometry" />
        </mxCell>
        <mxCell id="ypStdLImDc7VV0W3vYd6-3" value="Has&lt;br&gt;Posted" style="shape=rhombus;perimeter=rhombusPerimeter;whiteSpace=wrap;html=1;align=center;" vertex="1" parent="1">
          <mxGeometry x="340" y="160" width="120" height="60" as="geometry" />
        </mxCell>
        <mxCell id="ypStdLImDc7VV0W3vYd6-4" value="email" style="ellipse;whiteSpace=wrap;html=1;align=center;" vertex="1" parent="1">
          <mxGeometry x="210" y="110" width="100" height="40" as="geometry" />
        </mxCell>
        <mxCell id="ypStdLImDc7VV0W3vYd6-5" value="uid" style="ellipse;whiteSpace=wrap;html=1;align=center;fontStyle=4;" vertex="1" parent="1">
          <mxGeometry x="20" y="90" width="100" height="40" as="geometry" />
        </mxCell>
        <mxCell id="ypStdLImDc7VV0W3vYd6-6" value="first_name" style="ellipse;whiteSpace=wrap;html=1;align=center;" vertex="1" parent="1">
          <mxGeometry x="30" y="250" width="100" height="40" as="geometry" />
        </mxCell>
        <mxCell id="ypStdLImDc7VV0W3vYd6-14" style="rounded=0;orthogonalLoop=1;jettySize=auto;html=1;exitX=0.5;exitY=0;exitDx=0;exitDy=0;entryX=0.5;entryY=1;entryDx=0;entryDy=0;" edge="1" parent="1" source="ypStdLImDc7VV0W3vYd6-9" target="ypStdLImDc7VV0W3vYd6-10">
          <mxGeometry relative="1" as="geometry" />
        </mxCell>
        <mxCell id="ypStdLImDc7VV0W3vYd6-15" style="rounded=0;orthogonalLoop=1;jettySize=auto;html=1;exitX=0.5;exitY=1;exitDx=0;exitDy=0;entryX=0.5;entryY=0;entryDx=0;entryDy=0;" edge="1" parent="1" source="ypStdLImDc7VV0W3vYd6-9" target="ypStdLImDc7VV0W3vYd6-11">
          <mxGeometry relative="1" as="geometry" />
        </mxCell>
        <mxCell id="ypStdLImDc7VV0W3vYd6-30" style="rounded=0;orthogonalLoop=1;jettySize=auto;html=1;exitX=0.75;exitY=1;exitDx=0;exitDy=0;" edge="1" parent="1" source="ypStdLImDc7VV0W3vYd6-9" target="ypStdLImDc7VV0W3vYd6-27">
          <mxGeometry relative="1" as="geometry" />
        </mxCell>
        <mxCell id="ypStdLImDc7VV0W3vYd6-32" style="rounded=0;orthogonalLoop=1;jettySize=auto;html=1;exitX=1;exitY=0.5;exitDx=0;exitDy=0;entryX=0;entryY=0;entryDx=0;entryDy=0;" edge="1" parent="1" source="ypStdLImDc7VV0W3vYd6-9" target="ypStdLImDc7VV0W3vYd6-31">
          <mxGeometry relative="1" as="geometry" />
        </mxCell>
        <mxCell id="ypStdLImDc7VV0W3vYd6-35" value="1" style="edgeStyle=none;rounded=0;orthogonalLoop=1;jettySize=auto;html=1;exitX=0.25;exitY=1;exitDx=0;exitDy=0;entryX=0.5;entryY=0;entryDx=0;entryDy=0;" edge="1" parent="1" source="ypStdLImDc7VV0W3vYd6-9" target="ypStdLImDc7VV0W3vYd6-34">
          <mxGeometry relative="1" as="geometry" />
        </mxCell>
        <mxCell id="ypStdLImDc7VV0W3vYd6-9" value="Instagram Post" style="whiteSpace=wrap;html=1;align=center;" vertex="1" parent="1">
          <mxGeometry x="570" y="170" width="100" height="40" as="geometry" />
        </mxCell>
        <mxCell id="ypStdLImDc7VV0W3vYd6-10" value="time_tracking_started" style="ellipse;whiteSpace=wrap;html=1;align=center;" vertex="1" parent="1">
          <mxGeometry x="500" y="70" width="140" height="50" as="geometry" />
        </mxCell>
        <mxCell id="ypStdLImDc7VV0W3vYd6-11" value="time_tracking_ended" style="ellipse;whiteSpace=wrap;html=1;align=center;" vertex="1" parent="1">
          <mxGeometry x="550" y="310" width="140" height="50" as="geometry" />
        </mxCell>
        <mxCell id="ypStdLImDc7VV0W3vYd6-16" value="last_name" style="ellipse;whiteSpace=wrap;html=1;align=center;" vertex="1" parent="1">
          <mxGeometry x="190" y="270" width="100" height="40" as="geometry" />
        </mxCell>
        <mxCell id="ypStdLImDc7VV0W3vYd6-17" value="username" style="ellipse;whiteSpace=wrap;html=1;align=center;" vertex="1" parent="1">
          <mxGeometry x="140" y="40" width="100" height="40" as="geometry" />
        </mxCell>
        <mxCell id="ypStdLImDc7VV0W3vYd6-27" value="instagram_post_url" style="ellipse;whiteSpace=wrap;html=1;align=center;" vertex="1" parent="1">
          <mxGeometry x="670" y="250" width="140" height="50" as="geometry" />
        </mxCell>
        <mxCell id="ypStdLImDc7VV0W3vYd6-31" value="post_id" style="ellipse;whiteSpace=wrap;html=1;align=center;fontStyle=4;" vertex="1" parent="1">
          <mxGeometry x="720" y="110" width="100" height="40" as="geometry" />
        </mxCell>
        <mxCell id="ypStdLImDc7VV0W3vYd6-37" value="N" style="edgeStyle=none;rounded=0;orthogonalLoop=1;jettySize=auto;html=1;exitX=0.5;exitY=1;exitDx=0;exitDy=0;" edge="1" parent="1" source="ypStdLImDc7VV0W3vYd6-34" target="ypStdLImDc7VV0W3vYd6-36">
          <mxGeometry relative="1" as="geometry" />
        </mxCell>
        <mxCell id="ypStdLImDc7VV0W3vYd6-34" value="Has&lt;br&gt;Posted" style="shape=rhombus;perimeter=rhombusPerimeter;whiteSpace=wrap;html=1;align=center;" vertex="1" parent="1">
          <mxGeometry x="340" y="290" width="120" height="60" as="geometry" />
        </mxCell>
        <mxCell id="ypStdLImDc7VV0W3vYd6-42" style="edgeStyle=none;rounded=0;orthogonalLoop=1;jettySize=auto;html=1;exitX=0.25;exitY=1;exitDx=0;exitDy=0;entryX=0.5;entryY=0;entryDx=0;entryDy=0;" edge="1" parent="1" source="ypStdLImDc7VV0W3vYd6-36" target="ypStdLImDc7VV0W3vYd6-41">
          <mxGeometry relative="1" as="geometry" />
        </mxCell>
        <mxCell id="ypStdLImDc7VV0W3vYd6-43" style="edgeStyle=none;rounded=0;orthogonalLoop=1;jettySize=auto;html=1;exitX=0.75;exitY=1;exitDx=0;exitDy=0;entryX=0.5;entryY=0;entryDx=0;entryDy=0;" edge="1" parent="1" source="ypStdLImDc7VV0W3vYd6-36" target="ypStdLImDc7VV0W3vYd6-40">
          <mxGeometry relative="1" as="geometry" />
        </mxCell>
        <mxCell id="ypStdLImDc7VV0W3vYd6-45" style="edgeStyle=none;rounded=0;orthogonalLoop=1;jettySize=auto;html=1;exitX=1;exitY=0.5;exitDx=0;exitDy=0;entryX=0;entryY=0.5;entryDx=0;entryDy=0;" edge="1" parent="1" source="ypStdLImDc7VV0W3vYd6-36" target="ypStdLImDc7VV0W3vYd6-44">
          <mxGeometry relative="1" as="geometry" />
        </mxCell>
        <mxCell id="ypStdLImDc7VV0W3vYd6-36" value="Labelled Comment" style="whiteSpace=wrap;html=1;align=center;" vertex="1" parent="1">
          <mxGeometry x="350" y="440" width="100" height="40" as="geometry" />
        </mxCell>
        <mxCell id="ypStdLImDc7VV0W3vYd6-40" value="comment_body" style="ellipse;whiteSpace=wrap;html=1;align=center;" vertex="1" parent="1">
          <mxGeometry x="440" y="530" width="100" height="40" as="geometry" />
        </mxCell>
        <mxCell id="ypStdLImDc7VV0W3vYd6-41" value="comment_id" style="ellipse;whiteSpace=wrap;html=1;align=center;fontStyle=4;" vertex="1" parent="1">
          <mxGeometry x="270" y="530" width="100" height="40" as="geometry" />
        </mxCell>
        <mxCell id="ypStdLImDc7VV0W3vYd6-44" value="sentiment_polarity" style="ellipse;whiteSpace=wrap;html=1;align=center;" vertex="1" parent="1">
          <mxGeometry x="500" y="430" width="100" height="40" as="geometry" />
        </mxCell>
        <mxCell id="ypStdLImDc7VV0W3vYd6-46" value="password" style="ellipse;whiteSpace=wrap;html=1;align=center;" vertex="1" parent="1">
          <mxGeometry x="260" y="210" width="100" height="40" as="geometry" />
        </mxCell>
      </root>
    </mxGraphModel>
  </diagram>
</mxfile>
